Coordinates
version=1
nRows=13
nColumns=22
inDegrees=yes

Units are S.I. units (second, meters, Newtons, ...)
If the header above contains a line with 'inDegrees', this indicates whether rotational values are in degrees (yes) or radians (no).

endheader
time	pelvis_tilt	pelvis_list	pelvis_rotation	pelvis_tx	pelvis_ty	pelvis_tz	hip_flexion_r	hip_adduction_r	hip_rotation_r	knee_angle_r	ankle_angle_r	subtalar_angle_r	hip_flexion_l	hip_adduction_l	hip_rotation_l	knee_angle_l	ankle_angle_l	subtalar_angle_l	lumbar_extension	lumbar_bending	lumbar_rotation
      1.07000000	      5.21434560	     -4.65795269	     37.42524535	     -0.76761535	      1.01147934	      0.55015397	      5.45477275	      8.81665659	     -7.19928203	    -20.18415498	     12.30352052	     -0.99162354	     16.18762741	     -9.67389338	     -1.66656935	    -57.46573486	      9.32573486	     -3.20657807	    -15.00545563	      7.43361532	      4.69250353
      1.08000000	      5.25679174	     -4.53495837	     37.95880073	     -0.76337940	      1.01170517	      0.54781240	      4.85598403	      8.81926117	     -7.61045567	    -19.81014566	     12.46985361	     -1.00453265	     16.89597205	     -9.54884416	     -2.04876901	    -56.66578811	      9.70607776	     -3.02609162	    -15.15756547	      7.40369459	      4.98580767
      1.09000000	      5.26618740	     -4.44805106	     38.46443503	     -0.75920105	      1.01178038	      0.54553105	      4.34146880	      8.84062186	     -7.98082800	    -19.48806598	     12.63521211	     -1.01280715	     17.63622978	     -9.45906180	     -2.48777681	    -55.80581105	     10.07381094	     -2.98807127	    -15.26834290	      7.37247582	      5.32479132
      1.10000000	      5.37229843	     -4.27456142	     39.00611939	     -0.75504412	      1.01203667	      0.54314453	      3.66019174	      8.86302200	     -8.38196077	    -19.11435136	     12.79789250	     -1.04331996	     18.19725744	     -9.37383584	     -2.95773692	    -54.84635598	     10.36364205	     -2.99642445	    -15.53008975	      7.33786777	      5.56672607
      1.11000000	      5.39697656	     -4.18485385	     39.50562505	     -0.75092274	      1.01201952	      0.54083099	      3.15409710	      8.90738346	     -8.73773366	    -18.83003767	     12.98787235	     -1.05727937	     18.86849200	     -9.32974306	     -3.49790128	    -53.85722412	     10.68249475	     -3.06166855	    -15.66486714	      7.31226454	      5.83779444
      1.12000000	      5.49353950	     -4.00344896	     40.01965508	     -0.74682783	      1.01218307	      0.53841831	      2.49638148	      8.93502625	     -9.08440783	    -18.49256416	     13.16109821	     -1.08032190	     19.37155162	     -9.25556408	     -4.07014276	    -52.78126180	     10.87903729	     -3.30714151	    -15.93476064	      7.25841489	      6.05847336
      1.13000000	      5.54229337	     -3.87785018	     40.51250956	     -0.74278187	      1.01216536	      0.53599807	      1.94555466	      8.97791188	     -9.41582705	    -18.20671624	     13.35473319	     -1.08952482	     19.93563467	     -9.19196648	     -4.66931691	    -51.67890575	     11.08346441	     -3.52261226	    -16.12476061	      7.22082144	      6.28338626
      1.14000000	      5.58904967	     -3.75328137	     40.99826927	     -0.73878292	      1.01211007	      0.53351235	      1.40390949	      9.02161531	     -9.74866852	    -17.93495859	     13.54273564	     -1.09227085	     20.47629048	     -9.11296120	     -5.28460898	    -50.53838970	     11.23824076	     -3.73464861	    -16.31478660	      7.18718342	      6.48753167
      1.15000000	      5.63999519	     -3.63134355	     41.46866391	     -0.73480513	      1.01202901	      0.53096819	      0.86136364	      9.07330589	    -10.06830207	    -17.66733016	     13.70927081	     -1.08600224	     20.98734703	     -9.02576943	     -5.92331313	    -49.36444275	     11.32649300	     -3.94939234	    -16.50857579	      7.16178339	      6.66040037
      1.16000000	      5.66701071	     -3.52174978	     41.93116055	     -0.73086642	      1.01187593	      0.52833418	      0.34591654	      9.11825599	    -10.37645016	    -17.40371301	     13.89098742	     -1.07896183	     21.49859166	     -8.89192863	     -6.52976044	    -48.15868738	     11.38458364	     -4.08847510	    -16.66844283	      7.13398337	      6.83329343
      1.17000000	      5.70838060	     -3.41188575	     42.37625658	     -0.72692778	      1.01172476	      0.52562599	     -0.19344350	      9.17700569	    -10.65893503	    -17.12433298	     14.03931868	     -1.05973620	     21.96922177	     -8.74973113	     -7.14982116	    -46.92949002	     11.37629243	     -4.20744318	    -16.84084618	      7.11906163	      6.97661640
      1.18000000	      5.72467837	     -3.31109467	     42.80259205	     -0.72300210	      1.01151749	      0.52284185	     -0.70722466	      9.22276798	    -10.94156170	    -16.85104370	     14.19308668	     -1.03899972	     22.43137743	     -8.55773690	     -7.74099775	    -45.66789346	     11.33344528	     -4.23845116	    -16.98333469	      7.09257850	      7.11547231
      1.19000000	      5.71447534	     -3.22163475	     43.20922619	     -0.71908899	      1.01126201	      0.51999466	     -1.19660614	      9.25638324	    -11.21556465	    -16.57562949	     14.32695396	     -1.01647465	     22.88693657	     -8.31849566	     -8.30016435	    -44.37273289	     11.23983882	     -4.19441592	    -17.09349088	      7.05332990	      7.25296860
